<?xml version="1.0" encoding="UTF-8"?>
<svg version="1.1" xmlns="http://www.w3.org/2000/svg" width="512" height="512" viewBox="-270 -268 1050 1050">
<path d="M0 0 C1.21560356 -0.00614822 1.21560356 -0.00614822 2.45576477 -0.01242065 C5.12810433 -0.02203843 7.8003017 -0.02192987 10.47265625 -0.01953125 C11.85886169 -0.02012039 11.85886169 -0.02012039 13.27307129 -0.02072144 C29.12591593 -0.01277303 44.94727318 0.43774724 60.78515625 1.10546875 C61.81760468 1.1489444 62.8500531 1.19242004 63.91378784 1.23721313 C70.4558448 1.51782479 76.9958851 1.82875676 83.53515625 2.16796875 C84.69328827 2.22645996 84.69328827 2.22645996 85.87481689 2.28613281 C87.94704343 2.39366457 90.01842039 2.5108843 92.08984375 2.6328125 C93.20858887 2.69718506 94.32733398 2.76155762 95.47998047 2.82788086 C105.65747295 3.96079176 113.90340739 8.80631394 120.54296875 16.4921875 C127.62805489 25.93402823 129.76660609 35.44844048 128.53515625 47.16796875 C126.09685379 58.50538642 120.18200418 67.62244996 110.53515625 74.16796875 C103.4643597 77.97625464 96.2080198 79.49386841 88.36328125 80.9296875 C87.12269958 81.16581253 85.88211792 81.40193756 84.60394287 81.6452179 C81.33252978 82.26589138 78.05964311 82.87707572 74.7855835 83.48352051 C71.45452458 84.10287895 68.12579799 84.73451494 64.796875 85.36523438 C58.9462399 86.4718453 53.0938838 87.56877501 47.23980713 88.6570282 C44.66777376 89.14291573 42.10079777 89.64948913 39.53515625 90.16796875 C38.62087583 95.95841144 41.17727375 99.34342605 44.22265625 103.99609375 C45.53515625 106.16796875 45.53515625 106.16796875 45.53515625 108.16796875 C104.2131724 110.16923109 104.2131724 110.16923109 155.53515625 85.16796875 C158.10975867 83.05304029 160.69779322 80.95475407 163.28515625 78.85546875 C163.97109863 78.29666016 164.65704102 77.73785156 165.36376953 77.16210938 C169.77794741 73.57112442 174.23300238 70.03891761 178.72265625 66.54296875 C183.24868595 63.01585293 187.67505069 59.39812721 192.03515625 55.66796875 C198.15188148 50.43821051 204.43463504 45.45061714 210.79882812 40.52636719 C212.534649 39.16836559 214.24734866 37.78524321 215.95703125 36.39453125 C226.42654311 27.96041925 236.79835106 22.86147913 250.53515625 24.16796875 C261.68719727 26.43664376 270.69418442 30.85641455 277.47265625 40.16796875 C284.08124808 50.41517349 286.10565444 60.78490751 284.07421875 72.921875 C279.98341344 88.29849025 266.98707055 97.63037037 254.96557617 106.89746094 C249.7904246 110.90485328 244.85816657 115.15709118 239.93481445 119.46777344 C235.45887465 123.38283461 230.90291096 127.17922237 226.28125 130.921875 C223.14525638 133.48687689 220.05776137 136.10472341 216.97265625 138.73046875 C212.45149995 142.57160839 207.89131707 146.34780186 203.23046875 150.01953125 C201.20128122 151.63699957 199.20343426 153.27541182 197.21484375 154.94140625 C156.49408602 188.77070458 111.53454851 195.79188804 60.07530022 193.24198914 C56.59511884 193.06964386 53.11469787 192.90311783 49.63417053 192.73791504 C42.24675394 192.38627043 34.85968815 192.02759185 27.47265625 191.66796875 C18.89489757 191.25059529 10.3170109 190.83626057 1.73877144 190.42887878 C-1.65651671 190.26619788 -5.05152472 190.09839248 -8.44654846 189.93029785 C-31.80912491 188.61507439 -31.80912491 188.61507439 -55.08984375 190.29296875 C-56.00862305 190.41841064 -56.92740234 190.54385254 -57.87402344 190.6730957 C-68.30270699 192.16789639 -78.65181629 194.17198575 -88.99072266 196.18603516 C-89.66356293 196.31650742 -90.3364032 196.44697968 -91.02963257 196.58140564 C-92.87090997 196.93962303 -94.71136201 197.3020754 -96.55175781 197.66479492 C-99.46484375 198.16796875 -99.46484375 198.16796875 -102.46484375 198.16796875 C-102.4184375 199.27914062 -102.37203125 200.3903125 -102.32421875 201.53515625 C-102.00056707 212.47409085 -102.56863178 220.71311635 -109.77734375 229.48046875 C-115.3406092 235.36469182 -121.04265366 239.63926601 -129.3454895 240.44885254 C-130.34410004 240.46250854 -131.34271057 240.47616455 -132.37158203 240.49023438 C-133.51362091 240.50944946 -134.65565979 240.52866455 -135.83230591 240.54846191 C-137.05424652 240.55696167 -138.27618713 240.56546143 -139.53515625 240.57421875 C-140.80777313 240.5856189 -142.08039001 240.59701904 -143.39157104 240.60876465 C-146.08313254 240.62763444 -148.77424992 240.64144237 -151.46582031 240.6484375 C-154.88198766 240.65935985 -158.29654153 240.70733608 -161.71220589 240.76438141 C-165.00722963 240.81105321 -168.30234863 240.81456156 -171.59765625 240.82421875 C-172.80745148 240.84891235 -174.0172467 240.87360596 -175.26370239 240.89904785 C-185.97028523 240.84369412 -194.3306693 237.5894213 -201.96484375 229.98046875 C-210.121342 220.91173056 -210.04639327 209.06756308 -209.98242188 197.58007812 C-209.98785225 195.93129359 -209.99498002 194.28251391 -210.00366211 192.63374329 C-210.02178966 188.1853282 -210.01487197 183.73728708 -210.00214577 179.28886604 C-209.99196298 174.61619238 -210.00142602 169.94354905 -210.00769043 165.27087402 C-210.01495154 157.42645567 -210.00541959 149.58218835 -209.98632812 141.73779297 C-209.96456234 132.69053019 -209.9716148 123.64362808 -209.99363375 114.59637403 C-210.01183166 106.80493077 -210.01432466 99.01359559 -210.00387907 91.22213793 C-209.99766822 86.57899604 -209.99674178 81.93602324 -210.01002502 77.29289246 C-210.02164708 72.92601468 -210.01344282 68.55959835 -209.990448 64.19277 C-209.98519464 62.59773204 -209.98661631 61.00265471 -209.99549866 59.40763283 C-210.05923802 46.791005 -208.68670173 36.49936455 -199.6875 27.11328125 C-193.39450044 21.60552416 -187.12628812 19.07310892 -178.8293457 18.9909668 C-177.69749344 18.97813156 -176.56564117 18.96529633 -175.39949036 18.95207214 C-174.17968979 18.94468521 -172.95988922 18.93729828 -171.703125 18.9296875 C-170.44275925 18.92161575 -169.18239349 18.91354401 -167.88383484 18.90522766 C-165.21491837 18.89139598 -162.54612499 18.88037749 -159.87719727 18.87280273 C-156.47902068 18.86176936 -153.0815045 18.82739551 -149.68356037 18.78763103 C-146.41931503 18.75499729 -143.15500856 18.75067162 -139.890625 18.7421875 C-138.68094559 18.72467941 -137.47126617 18.70717133 -136.22492981 18.68913269 C-127.14040745 18.71229153 -119.89589058 20.35011937 -113.08984375 26.66796875 C-112.46335937 27.23515625 -111.836875 27.80234375 -111.19140625 28.38671875 C-106.46484375 33.26299137 -106.46484375 33.26299137 -106.46484375 36.16796875 C-97.21843387 32.19797383 -88.09627824 28.01827746 -79.06756592 23.5745697 C-54.01431244 11.24413298 -28.48130285 0.04589373 0 0 Z " fill="#010100" transform="translate(218.46484375,271.83203125)"/>
<path d="M0 0 C0.79841309 0.22042969 1.59682617 0.44085938 2.41943359 0.66796875 C25.58333871 7.26503496 44.51542714 18.49670419 62 35 C63.01320313 35.93392578 63.01320313 35.93392578 64.046875 36.88671875 C85.30096272 57.16311843 99.00339554 86.91931581 102 116 C102.1340625 117.24523437 102.268125 118.49046875 102.40625 119.7734375 C105.66763666 155.47567288 94.42768013 191.30147267 71.73193359 218.96630859 C47.52593927 247.38975555 15.02026856 264.13673874 -22.125 267.625 C-58.61647943 270.20805195 -94.15517386 258.84616748 -122 235 C-149.53813662 210.5073053 -166.20964562 177.31669296 -168.8125 140.4375 C-170.65803915 103.98810169 -158.65364563 69.11662115 -134.5 41.8125 C-133.00715944 40.20166861 -131.50735007 38.59726218 -130 37 C-129.32710937 36.26265625 -128.65421875 35.5253125 -127.9609375 34.765625 C-111.26945108 17.13641462 -89.13582926 6.38744994 -66 0 C-64.9783374 -0.28810547 -64.9783374 -0.28810547 -63.93603516 -0.58203125 C-44.71755842 -5.71348695 -19.10354581 -5.38713665 0 0 Z " fill="#EB654B" transform="translate(371,3)"/>
<path d="M0 0 C1.2903566 0.0036557 1.2903566 0.0036557 2.60678101 0.00738525 C19.07947075 0.06097204 35.53842929 0.54637609 52 1.125 C53.16866608 1.16411499 54.33733215 1.20322998 55.54141235 1.24353027 C58.90953203 1.35889653 62.27699484 1.4859893 65.64453125 1.6171875 C66.63372559 1.65063263 67.62291992 1.68407776 68.64208984 1.71853638 C89.05321297 2.57578449 89.05321297 2.57578449 95.1875 8.25 C98.40203729 12.22268287 99.86887478 15.96653408 99.57421875 21.19921875 C98.65020222 26.09930641 96.40780232 29.92202394 93.0625 33.5625 C85.797107 37.8269698 77.04435847 38.97093181 68.84375 40.37109375 C66.6887564 40.7529975 64.53380988 41.13516704 62.37890625 41.51757812 C59.02915919 42.10499896 55.67887874 42.68898908 52.32763672 43.26782227 C49.06044898 43.83454023 45.79583128 44.41457572 42.53125 44.99609375 C41.54241821 45.16290146 40.55358643 45.32970917 39.53479004 45.50157166 C31.36385232 46.96858535 22.07847323 49.02239973 16.1875 55.25 C11.31264641 62.88865946 9.18842681 69.13202165 10.1875 78.25 C13.26352172 88.98159149 19.65599377 100.03562589 29.1875 106.25 C33.64390681 108.52225356 37.8733899 108.52452808 42.765625 108.48046875 C43.60136551 108.48050903 44.43710602 108.48054932 45.298172 108.48059082 C48.01144305 108.4772029 50.72431078 108.4583411 53.4375 108.4375 C55.30655849 108.42863166 57.17561775 108.41992464 59.04467773 108.41137695 C99.69362833 108.17704888 132.57192443 104.8694661 164.47167969 77.70263672 C166.6738855 75.83821945 168.92452036 74.03994878 171.1875 72.25 C175.46253671 68.84288182 179.70031028 65.39143193 183.9375 61.9375 C189.60711678 57.31633296 195.33026179 52.7736397 201.10180664 48.28076172 C204.54397581 45.58577955 207.90916935 42.82007297 211.2277832 39.97436523 C213.36310013 38.14413879 215.51687441 36.3364755 217.67333984 34.53125 C219.12801798 33.30033241 220.55876314 32.04129943 221.98828125 30.78125 C228.01320144 25.82878304 232.4491515 24.18763407 240.30078125 24.7265625 C246.93690812 25.92986561 250.30587616 30.14843724 254.1875 35.25 C256.29464196 39.46428391 255.93623538 44.83532841 254.5625 49.265625 C250.53558356 56.75317276 242.6639611 61.98776175 236.1875 67.25 C235.27613281 68.00152344 234.36476563 68.75304687 233.42578125 69.52734375 C231.69547544 70.95027517 229.96094917 72.36808698 228.22265625 73.78125 C218.64371284 81.5726171 209.11904686 89.42776793 199.71044922 97.42407227 C195.59714344 100.91568897 191.43888468 104.34657452 187.24609375 107.7421875 C184.90369122 109.66277808 182.58951951 111.60497307 180.28515625 113.5703125 C153.79357764 136.02703405 122.49923426 151.46480401 87.17578125 151.3828125 C86.24509323 151.38376923 85.31440521 151.38472595 84.35551453 151.38571167 C82.39659558 151.38638819 80.43767433 151.38457096 78.47875977 151.38037109 C75.52550037 151.37504598 72.57239517 151.38031843 69.61914062 151.38671875 C60.72226373 151.39028476 51.90923594 151.27292534 43.03833008 150.53076172 C37.92890174 150.15823635 32.8178529 149.95263013 27.69921875 149.75 C26.14470757 149.68823074 26.14470757 149.68823074 24.55879211 149.62521362 C21.33092286 149.49849972 18.10297621 149.37395739 14.875 149.25 C10.60799251 149.08532767 6.34106165 148.91888472 2.07421875 148.75 C0.52667152 148.68900871 0.52667152 148.68900871 -1.05213928 148.62678528 C-7.01410994 148.38497526 -12.96721906 148.07898812 -18.921875 147.69921875 C-45.17887859 146.04913503 -69.62420704 147.98315199 -95.26733398 153.21728516 C-96.55712158 153.47815918 -97.84690918 153.7390332 -99.17578125 154.0078125 C-100.33376221 154.2464502 -101.49174316 154.48508789 -102.68481445 154.73095703 C-105.8125 155.25 -105.8125 155.25 -110.8125 155.25 C-110.8125 116.31 -110.8125 77.37 -110.8125 37.25 C-48.94529917 7.10956882 -48.94529917 7.10956882 -28.8125 2.25 C-27.62684448 1.95851074 -27.62684448 1.95851074 -26.41723633 1.66113281 C-17.67315376 -0.21645641 -8.89307849 -0.05486458 0 0 Z " fill="#FBC65A" transform="translate(226.8125,292.75)"/>
<path d="M0 0 C0.79841309 0.22042969 1.59682617 0.44085938 2.41943359 0.66796875 C25.58333871 7.26503496 44.51542714 18.49670419 62 35 C63.01320313 35.93392578 63.01320313 35.93392578 64.046875 36.88671875 C85.30096272 57.16311843 99.00339554 86.91931581 102 116 C102.1340625 117.24523437 102.268125 118.49046875 102.40625 119.7734375 C105.66763666 155.47567288 94.42768013 191.30147267 71.73193359 218.96630859 C47.52593927 247.38975555 15.02026856 264.13673874 -22.125 267.625 C-58.61647943 270.20805195 -94.15517386 258.84616748 -122 235 C-149.53813662 210.5073053 -166.20964562 177.31669296 -168.8125 140.4375 C-170.65803915 103.98810169 -158.65364563 69.11662115 -134.5 41.8125 C-133.00715944 40.20166861 -131.50735007 38.59726218 -130 37 C-129.32710937 36.26265625 -128.65421875 35.5253125 -127.9609375 34.765625 C-111.26945108 17.13641462 -89.13582926 6.38744994 -66 0 C-64.9783374 -0.28810547 -64.9783374 -0.28810547 -63.93603516 -0.58203125 C-44.71755842 -5.71348695 -19.10354581 -5.38713665 0 0 Z M-63 21 C-63.66080566 21.19335938 -64.32161133 21.38671875 -65.00244141 21.5859375 C-79.68396785 25.9873389 -93.39016138 32.90448816 -105 43 C-105.79535156 43.67546875 -106.59070313 44.3509375 -107.41015625 45.046875 C-128.68818599 63.59526568 -143.81195125 88.58721469 -147 117 C-147.66896111 131.88503045 -147.545858 146.48672075 -144 161 C-143.69255859 162.3303125 -143.69255859 162.3303125 -143.37890625 163.6875 C-138.19895983 183.24903679 -127.13477324 199.82518491 -113 214 C-112.17242187 214.85078125 -111.34484375 215.7015625 -110.4921875 216.578125 C-86.8878652 239.53278705 -56.72392847 246.70046286 -24.76953125 246.265625 C3.57416216 245.68790239 29.26166345 231.73833655 49 212 C49.88558594 211.11441406 50.77117187 210.22882813 51.68359375 209.31640625 C57.89558812 202.80184899 62.62095872 195.84815191 67 188 C67.53367187 187.05640625 68.06734375 186.1128125 68.6171875 185.140625 C82.59253123 158.92780412 85.46947631 126.9548413 76.96875 98.5546875 C70.86960495 80.13362103 61.27269293 65.09919762 48 51 C47.46117187 50.39671875 46.92234375 49.7934375 46.3671875 49.171875 C29.08284595 30.58469363 1.08562958 18.86136839 -23.9921875 17.88330078 C-37.22941658 17.49567213 -50.20907707 17.18440265 -63 21 Z " fill="#010000" transform="translate(371,3)"/>
<path d="M0 0 C1.47712212 -0.01441132 1.47712212 -0.01441132 2.98408508 -0.02911377 C4.0517662 -0.03336365 5.11944733 -0.03761353 6.21948242 -0.04199219 C7.31459641 -0.04769226 8.40971039 -0.05339233 9.53800964 -0.05926514 C11.85898876 -0.06872432 14.17998136 -0.07525275 16.50097656 -0.07910156 C20.04996238 -0.08879891 23.5983672 -0.1198109 27.1472168 -0.15136719 C29.40046856 -0.15789792 31.65372447 -0.16314811 33.90698242 -0.16699219 C35.49939507 -0.18551239 35.49939507 -0.18551239 37.12397766 -0.20440674 C46.4459237 -0.17626758 46.4459237 -0.17626758 50.26245117 3.16113281 C53.52149935 6.60597141 53.63899995 9.16724615 53.6434021 13.83457947 C53.64808207 14.50417193 53.65276204 15.17376438 53.65758383 15.86364752 C53.66954482 18.10615887 53.66007271 20.34806034 53.65063477 22.59057617 C53.65470003 24.19880022 53.66004166 25.80702147 53.66656494 27.41523743 C53.68025085 31.78303513 53.67493438 36.15062043 53.66542768 40.51842189 C53.65783638 45.08850477 53.66487535 49.65856937 53.66958618 54.22865295 C53.67504583 61.9046658 53.66784722 69.58059209 53.65356445 77.2565918 C53.63724334 86.13052403 53.64252167 95.00424942 53.65904367 103.87817663 C53.67265952 111.49612477 53.67457754 119.11401065 53.66672766 126.73196703 C53.66205094 131.28221658 53.66142615 135.83236893 53.67133713 140.38261223 C53.68000574 144.66148363 53.67398686 148.94008857 53.65665436 153.2189312 C53.6526887 154.78907326 53.65382494 156.35923776 53.66044235 157.92937088 C53.66864525 160.07345047 53.65835247 162.21667721 53.6434021 164.36070251 C53.64227102 165.56029067 53.64113995 166.75987883 53.63997459 167.99581814 C53.12133458 172.3443135 51.52688241 174.95360918 48.39097595 177.94837952 C45.81282493 179.41731292 44.16389406 179.54706726 41.20605469 179.56518555 C40.20143692 179.57786972 39.19681915 179.59055389 38.16175842 179.60362244 C36.54290993 179.59921898 36.54290993 179.59921898 34.89135742 179.59472656 C33.77687729 179.59996841 32.66239716 179.60521027 31.5141449 179.61061096 C29.15803866 179.61703227 26.80190038 179.61569279 24.44580078 179.60717773 C20.84178524 179.59867254 17.23935681 179.62742221 13.63549805 179.65917969 C11.34578498 179.6607919 9.05606911 179.66021379 6.76635742 179.65722656 C5.68914932 179.66846054 4.61194122 179.67969452 3.50209045 179.69126892 C-3.93688363 179.62202231 -3.93688363 179.62202231 -7.83154297 177.38012695 C-11.48384161 173.12807849 -11.98995055 170.09770086 -12.01170349 164.49441528 C-12.01694017 163.82552839 -12.02217685 163.1566415 -12.02757221 162.46748531 C-12.04256708 160.22744914 -12.04327724 157.9876415 -12.04394531 155.74755859 C-12.05156712 154.14095677 -12.05999465 152.5343586 -12.06916809 150.92776489 C-12.09111699 146.56409466 -12.09991242 142.2004945 -12.10499454 137.8367753 C-12.10863741 135.11031036 -12.11487709 132.38386379 -12.12199593 129.65740585 C-12.14649105 120.14513085 -12.15954261 110.6329104 -12.16308594 101.12060547 C-12.16672205 92.25456569 -12.19662258 83.3888719 -12.23849052 74.52293789 C-12.27318045 66.91007555 -12.28863415 59.29732795 -12.28933197 51.68438709 C-12.29012518 47.13790782 -12.29888402 42.59178104 -12.32732964 38.04538345 C-12.35348846 33.76886905 -12.35572803 29.49299994 -12.339674 25.21644211 C-12.33785779 23.64831384 -12.34456589 22.08014865 -12.36049271 20.51210022 C-12.38094106 18.36790976 -12.37041314 16.22597991 -12.35227966 14.08181763 C-12.35429099 12.88315126 -12.35630232 11.6844849 -12.3583746 10.44949532 C-11.52261227 6.02266637 -9.87683741 4.3530684 -6.73754883 1.16113281 C-4.30521697 -0.05503311 -2.71851182 0.02136702 0 0 Z " fill="#EC654B" transform="translate(41.737548828125,311.8388671875)"/>
<path d="M0 0 C6.70225484 5.06565773 11.15110832 12.8951534 13.375 20.875 C13.88450302 25.88511307 13.56801621 28.91125574 10.375 32.875 C7.63272005 35.02435455 5.82701608 35.80908099 2.375 36.3125 C-1.60175106 35.73255714 -2.91445574 34.87086471 -5.625 31.875 C-6.7340797 29.40285287 -7.66369309 26.89464292 -8.59765625 24.3515625 C-10.35395112 20.11775663 -12.66943553 16.86303869 -16.859375 14.74609375 C-22.88070506 12.84954487 -30.22085838 12.6134345 -36.17578125 14.8203125 C-40.75174731 17.56072155 -44.22121396 21.06742792 -46.625 25.875 C-47.15957405 35.54873419 -46.99150211 44.60751354 -44.28125 53.98046875 C-43.51882446 57.34330999 -43.58250636 60.43630303 -43.625 63.875 C-42.74239502 63.85928955 -41.85979004 63.8435791 -40.95043945 63.82739258 C-37.66099114 63.77612002 -34.37197039 63.73858083 -31.08227539 63.71020508 C-29.66130859 63.6951624 -28.24038787 63.67472296 -26.81958008 63.64868164 C-24.77153114 63.61209653 -22.7240985 63.59522903 -20.67578125 63.58203125 C-19.44512939 63.5663208 -18.21447754 63.55061035 -16.9465332 63.53442383 C-13.31757492 63.90652209 -11.50327632 64.67551691 -8.625 66.875 C-5.95663589 70.87754616 -5.7909762 74.16813299 -6.625 78.875 C-8.80659145 81.63069447 -10.49677494 83.31088747 -13.625 84.875 C-15.80324961 84.96059118 -17.98415255 84.98213412 -20.1640625 84.97265625 C-22.11699219 84.96782227 -22.11699219 84.96782227 -24.109375 84.96289062 C-25.48958399 84.95453466 -26.86979232 84.94606971 -28.25 84.9375 C-29.63801926 84.93248501 -31.02604022 84.9279221 -32.4140625 84.92382812 C-35.81775132 84.91200976 -39.22135439 84.89553434 -42.625 84.875 C-42.58407227 85.89368164 -42.54314453 86.91236328 -42.50097656 87.96191406 C-42.18454533 97.00596034 -43.39001309 104.31094982 -46.625 112.875 C-45.90957031 112.82859375 -45.19414062 112.7821875 -44.45703125 112.734375 C-35.00749356 112.39208903 -26.67029396 114.25892165 -18.25 118.625 C-9.87813372 121.51185044 -0.94164778 120.38956292 7.375 117.875 C12.05151019 117.24064688 15.31146409 117.21029006 19.375 119.75 C21.9698069 122.50698233 22.33610169 123.35959743 22.625 127.1875 C22.34539621 131.31165593 22.16437464 132.83950407 19.375 135.875 C8.76874111 141.62754719 -5.78043549 144.24155319 -17.56884766 141.40771484 C-21.6914806 140.1544596 -25.64657548 138.51815406 -29.625 136.875 C-34.29360141 135.03130868 -38.40439919 134.5975475 -43.375 134.6875 C-44.10436768 134.69031982 -44.83373535 134.69313965 -45.58520508 134.69604492 C-49.5862247 134.73565054 -53.54181763 134.92592349 -57.52734375 135.28125 C-58.3275293 135.34723389 -59.12771484 135.41321777 -59.95214844 135.48120117 C-61.49030221 135.61563848 -63.02664021 135.77354753 -64.55957031 135.95825195 C-68.49873882 136.30119873 -70.97134625 136.04816221 -74.0546875 133.63671875 C-77.09813974 130.36662645 -77.9536579 128.86714025 -78.19140625 124.515625 C-77.29160055 120.32066876 -74.7936411 117.34565111 -72.24780273 113.95947266 C-65.55857928 104.97720994 -63.37398602 95.88558721 -62.625 84.875 C-63.80473389 84.91427612 -63.80473389 84.91427612 -65.00830078 84.9543457 C-68.58866216 85.05859476 -72.16870381 85.1234175 -75.75 85.1875 C-76.9875 85.22939453 -78.225 85.27128906 -79.5 85.31445312 C-89.77756634 85.45259246 -89.77756634 85.45259246 -93.4296875 82.48046875 C-95.97532272 79.45922553 -96.54799961 78.54233675 -97 74.625 C-96.50572704 69.68227042 -95.08671699 68.33671699 -91.625 64.875 C-88.96321779 63.5441089 -86.93760604 63.76231007 -83.9609375 63.77734375 C-82.27871094 63.78217773 -82.27871094 63.78217773 -80.5625 63.78710938 C-79.386875 63.79548828 -78.21125 63.80386719 -77 63.8125 C-75.81664062 63.81701172 -74.63328125 63.82152344 -73.4140625 63.82617188 C-70.48432493 63.83798533 -67.55468728 63.85445742 -64.625 63.875 C-64.82996094 62.9571875 -65.03492188 62.039375 -65.24609375 61.09375 C-65.51550781 59.8665625 -65.78492188 58.639375 -66.0625 57.375 C-66.32933594 56.1684375 -66.59617187 54.961875 -66.87109375 53.71875 C-70.01446103 37.69246293 -70.49291781 22.80532194 -61.5 8.625 C-46.74170742 -11.33836781 -19.85993114 -12.51750671 0 0 Z " fill="#030101" transform="translate(369.625,68.125)"/>
</svg>
